<!-- icon666.com - MILLIONS OF FREE VECTOR ICONS --><svg clip-rule="evenodd" fill-rule="evenodd" image-rendering="optimizeQuality" shape-rendering="geometricPrecision" text-rendering="geometricPrecision" viewBox="0 0 43.3492 43.3492" xmlns="http://www.w3.org/2000/svg" xmlns:xlink="http://www.w3.org/1999/xlink"><linearGradient id="id0" gradientUnits="userSpaceOnUse" x1="-1.102" x2="44.451" y1="16.745" y2="26.604"><stop offset="0" stop-color="#f4505d"></stop><stop offset=".501961" stop-color="#be73ed"></stop><stop offset="1" stop-color="#15c0e9"></stop></linearGradient><g id="Layer_x0020_1"><path d="m.8241 21.6745c1.108.9983 5.7101 4.8819 12.3677 6.9374 6.972 2.1525 17.6907 2.6778 29.3039-6.9373-11.6132-9.6152-22.332-9.0899-29.3039-6.9372-6.6575 2.0554-11.2598 5.939-12.3677 6.9371zm16.1564-1.6605c-.0435 0-.0879-.0086-.1304-.0267-.1693-.0722-.2483-.2678-.1763-.4373.8546-2.0095 2.8178-3.3078 5.0008-3.3078.1841-.0002.3335.1493.3335.3334 0 .1842-.1494.3335-.3335.3335-1.9154-.0001-3.6375 1.1391-4.3877 2.9019-.0538.1268-.1772.203-.3064.203zm.3673 4.6915c-.1121 0-.2207-.0554-.2841-.1567-.5374-.8608-.8215-1.8547-.8215-2.8742.0002-.1842.1494-.3334.3335-.3334.1842-.0001.3335.1493.3335.3334 0 .8945.2492 1.7662.7207 2.5209.0973.1562.0495.3619-.106.4594-.0555.0342-.1163.0508-.1761.0506zm4.3268 2.4014c-1.1271 0-2.2082-.342-3.1269-.9894-.1501-.1061-.1858-.3141-.0799-.4646.106-.1506.3144-.1864.4646-.0803.8051.5674 1.7532.8676 2.7422.8676.1841-.0001.3335.1493.3335.3335 0 .184-.1494.3333-.3335.3332zm18.1822 2.0542c-.086 0-.1711-.0326-.2362-.0977l-2.6954-2.6952c-1.4389.8213-2.8926 1.5246-4.3582 2.1081l1.8366 2.755c.1026.1532.0608.3603-.092.4624-.0573.0378-.1216.056-.1848.0559-.1079 0-.2138-.052-.2781-.1484l-1.919-2.8786c-1.5124.5651-3.037 1.0033-4.5708 1.3129l.9716 2.9135c.0583.1749-.0357.3638-.2111.422-.0347.0116-.0703.0172-.105.0171-.1397 0-.2701-.0882-.3162-.228l-.9997-2.999c-1.5497.2752-3.111.4205-4.6757.4356l.0002 3.0135c0 .1843-.1495.3335-.3335.3335s-.3336-.1492-.3336-.3333l.0001-3.0151c-1.5571-.0216-3.1179-.1715-4.6774-.4497l-.9964 2.9889c-.0468.1397-.1763.2281-.3161.228-.0345 0-.0703-.0054-.1059-.0171-.1745-.0583-.2692-.2471-.2102-.4218l.9673-2.9037c-1.0173-.2051-2.0337-.4647-3.0478-.7787-.5256-.1628-1.0387-.3368-1.5385-.5197l-1.9 2.8496c-.0643.0963-.1695.1486-.277.1484-.0643 0-.1286-.018-.1851-.0559-.1527-.1023-.1945-.3091-.0929-.4624l1.8148-2.7216c-1.6163-.6297-3.084-1.3469-4.3788-2.0705l-2.6833 2.6828c-.065.0651-.1503.0978-.2354.0977-.085 0-.1711-.0325-.2362-.0976-.1301-.1302-.1302-.3414 0-.4715l2.5545-2.5542c-3.5766-2.0878-5.6793-4.1219-5.7118-4.1534-.0633-.0628-.0998-.1486-.0998-.2383 0-.0896.0364-.1755.0998-.2382.0325-.0315 2.1352-2.0657 5.712-4.1535l-2.5545-2.5543c-.1303-.1301-.1304-.3412-.0002-.4714.1303-.1301.3422-.1302.4715 0l2.6836 2.6829c1.2947-.7235 2.7624-1.4407 4.3786-2.0704l-1.8146-2.7218c-.1016-.1532-.0601-.3601.0927-.4623.1538-.1021.3604-.0606.462.0925l1.9002 2.8497c.4998-.1829 1.0128-.3569 1.5384-.5196 1.0141-.3141 2.0305-.5737 3.0478-.7788l-.9671-2.9037c-.0592-.1747.0354-.3636.21-.4218.1745-.0583.3638.0361.422.2109l.9965 2.989c1.5594-.2781 3.1201-.4281 4.6772-.4497l.0001-3.0154c0-.184.1493-.3332.3334-.3332.1841-.0001.3334.1493.3334.3334l.0002 3.0137c1.5645.0152 3.1247.1602 4.6753.4356l1-2.9991c.0582-.1749.2466-.2692.4211-.2108.1756.0582.2692.247.211.4217l-.9715 2.9138c1.5338.3096 3.0584.7477 4.5708 1.3128l1.919-2.8786c.1026-.1532.3092-.1948.4629-.0925.153.102.1945.3093.092.4624l-1.8366 2.755c1.4656.5835 2.9192 1.2867 4.3581 2.108l2.6957-2.6952c.1301-.1301.341-.1301.4713.0001.1304.13.1302.3414 0 .4715l-2.5712 2.571c1.9333 1.1506 3.839 2.5154 5.7103 4.0913.0747.0632.118.1567.118.255.0001.0983-.0434.1917-.118.2551-1.8713 1.5758-3.777 2.9406-5.7103 4.0912l2.5713 2.5709c.1303.1301.1301.3414-.0001.4716-.065.0651-.1502.0977-.2353.0977zm-18.1822-10.0513c-1.4135 0-2.5642 1.1506-2.5642 2.5648.0001 1.4142 1.1505 2.5648 2.5642 2.5648 1.4146 0 2.5651-1.1505 2.5651-2.5648s-1.1506-2.5647-2.5651-2.5648zm0 5.7964c-1.7818 0-3.2311-1.4497-3.2311-3.2316.0002-1.7819 1.4493-3.2316 3.2311-3.2316 1.7819-.0001 3.232 1.4497 3.232 3.2316.0001 1.7819-1.4502 3.2316-3.232 3.2316zm0-9.999c-3.7311 0-6.767 3.0359-6.767 6.7674.0002 3.7316 3.0357 6.7674 6.767 6.7674 3.7323-.0001 6.7678-3.0358 6.7678-6.7674.0001-3.7316-3.0357-6.7673-6.7678-6.7674zm0 14.2015c-4.0993 0-7.4339-3.3348-7.4339-7.4341s3.3345-7.4342 7.4339-7.4342 7.4347 3.3349 7.4347 7.4342c.0002 4.0993-3.3353 7.4342-7.4347 7.4341z" fill="url(#id0)"></path></g></svg>