<!-- icon666.com - MILLIONS OF FREE VECTOR ICONS --><svg id="Layer_1" enable-background="new 0 0 512 512" viewBox="0 0 512 512" xmlns="http://www.w3.org/2000/svg" xmlns:xlink="http://www.w3.org/1999/xlink"><linearGradient id="SVGID_1_" gradientUnits="userSpaceOnUse" x1="26.5" x2="485.5" y1="256" y2="256"><stop offset="0" stop-color="#80d8ff"></stop><stop offset="1" stop-color="#ea80fc"></stop></linearGradient><path d="m485.5 492c0 11.046-8.954 20-20 20h-58c-11.046 0-20-8.954-20-20v-142c0-11.046 8.954-20 20-20s20 8.954 20 20v122h38c11.046 0 20 8.954 20 20zm-158-162c-11.046 0-20 8.954-20 20v142c0 11.046 8.954 20 20 20s20-8.954 20-20v-142c0-11.046-8.954-20-20-20zm-223 40c11.046 0 20-8.954 20-20s-8.954-20-20-20h-58c-11.046 0-20 8.954-20 20v142c0 11.046 8.954 20 20 20s20-8.954 20-20v-44h38c11.046 0 20-8.954 20-20s-8.954-20-20-20h-38v-38zm167.168 116.161c3.899 12.863-5.727 25.839-19.168 25.839-9.04 0-16.958-6.055-19.328-14.778l-3.048-11.222h-42.508l-3.081 11.258c-2.383 8.705-10.293 14.742-19.319 14.742h-.01c-13.466 0-23.095-13.022-19.15-25.896l43.378-141.571c2.646-8.636 10.62-14.532 19.652-14.532 9.055 0 17.043 5.926 19.67 14.592zm-52.411-40.161-10.31-37.948-10.385 37.948zm161.243-406h-38v19c0 33.084-26.916 60-60 60h-78c-33.084 0-60-26.916-60-60v-19h-38c-22.056 0-40 17.944-40 40v190c0 11.046-8.954 20-20 20s-20-8.954-20-20v-190c0-44.112 35.888-80 80-80h274c44.112 0 80 35.888 80 80v190c0 11.046-8.954 20-20 20s-20-8.954-20-20v-190c0-22.056-17.944-40-40-40zm-78 0h-118v19c0 11.028 8.972 20 20 20h78c11.028 0 20-8.972 20-20zm53 116h-225c-11.046 0-20 8.954-20 20s8.954 20 20 20h225c11.046 0 20-8.954 20-20s-8.954-20-20-20zm0 80h-225c-11.046 0-20 8.954-20 20s8.954 20 20 20h225c11.046 0 20-8.954 20-20s-8.954-20-20-20z" fill="url(#SVGID_1_)"></path></svg>