<?xml version="1.0" standalone="no"?>
<!DOCTYPE svg PUBLIC "-//W3C//DTD SVG 20010904//EN"
 "http://www.w3.org/TR/2001/REC-SVG-20010904/DTD/svg10.dtd">
<svg version="1.0" xmlns="http://www.w3.org/2000/svg"
 width="936.000000pt" height="936.000000pt" viewBox="0 0 936.000000 936.000000"
 preserveAspectRatio="xMidYMid meet">
<metadata>
Created by potrace 1.10, written by Peter Selinger 2001-2011
</metadata>
<defs>
  <linearGradient id="gradient1" x1="0%" y1="0%" x2="100%" y2="100%">
      <stop offset="0" style="stop-color:#4800bd;stop-opacity:1"/>
      <stop offset="1" style="stop-color:#e39f00;stop-opacity:1"/>
  </linearGradient>
  <linearGradient id="gradient2" x1="0%" y1="0%" x2="100%" y2="100%">
      <stop offset="0" style="stop-color:#e39f00;stop-opacity:1"/>
      <stop offset="1" style="stop-color:#e39f00;stop-opacity:1"/>
  </linearGradient>
  <linearGradient id="gradient3" x1="0%" y1="0%" x2="100%" y2="100%">
      <stop offset="0" style="stop-color:#97515c;stop-opacity:1"/>
      <stop offset="1" style="stop-color:#a96348;stop-opacity:1"/>
  </linearGradient>
  
</defs>
<g transform="translate(0.000000,936.000000) scale(0.100000,-0.100000)"
fill="#000000" stroke="none">
<path style="fill:url(#gradient1);" d="M4895 8270 c-121 -5 -234 -14 -285 -25 -47 -9 -152 -30 -235 -46 -82
-16 -177 -36 -210 -44 -33 -8 -98 -24 -145 -35 -339 -81 -793 -238 -1115 -385
-16 -8 -57 -26 -90 -41 -631 -282 -1156 -665 -1337 -974 -108 -186 -149 -358
-117 -497 35 -154 150 -289 314 -368 136 -66 267 -99 710 -179 77 -14 163 -30
190 -36 28 -6 104 -21 170 -34 447 -88 1302 -300 1335 -332 13 -13 15 -127 19
-877 4 -891 -2 -1110 -44 -1603 -8 -94 -15 -196 -15 -226 0 -36 -5 -60 -15
-68 -28 -23 -251 -72 -440 -97 -193 -25 -618 -25 -740 0 -265 55 -557 143
-835 252 -181 71 -239 104 -315 176 -91 86 -168 109 -253 73 -114 -47 -166
-187 -111 -297 30 -58 143 -165 227 -215 236 -140 824 -340 1212 -412 280 -51
834 -30 1153 44 38 9 73 14 78 10 5 -3 9 -94 9 -203 0 -222 0 -222 76 -423 9
-24 21 -52 27 -63 5 -11 14 -33 18 -50 4 -16 17 -55 29 -85 12 -30 26 -69 31
-87 5 -18 14 -35 19 -38 6 -4 10 -13 10 -20 0 -8 14 -38 32 -67 90 -151 224
-228 369 -215 46 4 74 14 122 44 117 73 173 185 143 285 -21 68 -43 96 -100
129 -41 23 -63 29 -111 29 -70 0 -82 6 -95 46 -9 29 -49 137 -90 244 -61 158
-65 192 -51 419 12 184 17 202 65 217 39 12 340 132 408 162 146 66 356 204
528 345 111 92 378 355 489 482 100 114 195 238 236 308 15 27 33 51 40 53 7
3 140 -123 296 -279 341 -341 525 -505 826 -739 26 -21 62 -50 78 -65 17 -16
82 -71 145 -123 182 -149 257 -218 295 -271 19 -27 35 -51 35 -54 0 -3 16 -27
36 -54 94 -126 271 -127 359 -2 27 39 30 50 30 124 0 45 -2 107 -4 137 -2 30
0 89 4 130 6 59 4 84 -10 120 -39 103 -45 205 -54 875 -18 1292 -31 1840 -46
2025 -26 304 -53 517 -91 691 -8 37 -14 82 -14 100 0 143 -139 252 -276 218
-62 -16 -128 -80 -144 -141 -14 -50 -7 -179 15 -278 31 -142 76 -476 75 -568
0 -29 6 -139 14 -245 10 -125 17 -425 20 -857 3 -366 10 -871 17 -1124 7 -315
8 -461 1 -468 -7 -7 -43 17 -114 79 -57 49 -132 111 -168 138 -277 208 -755
665 -1143 1092 -46 51 -47 54 -47 115 0 213 -101 443 -291 664 -140 162 -298
297 -473 403 -59 35 -103 68 -99 72 4 4 28 4 53 -1 42 -9 163 -5 238 6 39 6
61 41 44 70 -10 17 -23 19 -144 16 -73 -1 -139 1 -147 7 -29 19 -4 38 60 45
114 11 199 72 199 141 0 71 -102 100 -193 54 -45 -23 -147 -95 -159 -113 -11
-17 -21 -113 -14 -141 4 -14 15 -33 26 -43 23 -19 26 -32 6 -32 -7 0 -82 30
-166 66 -142 61 -301 123 -360 139 -27 8 -100 55 -117 77 -6 7 -14 30 -18 51
-7 34 -5 37 16 37 46 0 68 12 88 46 20 33 41 45 41 22 0 -6 -11 -25 -24 -42
-36 -48 -52 -101 -37 -120 23 -27 49 -18 116 38 109 93 129 95 75 8 -35 -58
-37 -73 -10 -97 25 -23 49 -13 156 61 111 77 126 73 74 -19 -43 -77 -37 -117
17 -117 17 0 29 12 48 48 14 26 50 83 80 126 30 44 55 89 55 102 0 52 -64 70
-137 39 -49 -21 -67 -14 -52 19 28 60 -49 98 -122 61 -36 -19 -49 -13 -49 25
0 35 -23 60 -55 60 -55 0 -297 -157 -308 -199 -6 -25 -33 -19 -42 9 -4 13 6
31 34 60 73 76 63 139 -26 157 -73 14 -104 1 -172 -74 -34 -36 -61 -71 -61
-78 0 -17 -48 -60 -57 -51 -5 4 -1 13 7 19 8 7 26 35 39 62 14 28 35 67 48 87
32 52 31 102 -3 125 -23 14 -32 15 -73 4 -45 -12 -46 -12 -72 18 -14 17 -34
31 -45 31 -27 0 -100 -30 -165 -67 -31 -18 -61 -33 -66 -33 -5 0 -7 25 -5 58
3 51 1 60 -21 80 -30 28 -77 23 -117 -11 -42 -37 -99 -111 -116 -152 -15 -36
-14 -40 4 -64 28 -38 86 -40 137 -5 37 25 40 25 52 8 7 -10 13 -21 13 -25 0
-4 8 -10 17 -13 11 -5 33 4 59 22 23 17 52 33 64 37 26 8 25 7 -28 -73 -29
-42 -34 -57 -26 -70 23 -36 58 -26 127 35 67 59 133 101 143 91 3 -4 -6 -31
-21 -62 -30 -63 -27 -92 11 -106 21 -8 23 -12 13 -34 -6 -13 -19 -26 -29 -29
-19 -5 -176 37 -194 52 -6 5 -29 11 -51 13 -22 3 -94 19 -160 37 -66 18 -144
39 -173 46 -30 7 -58 17 -64 23 -12 12 36 114 82 177 62 83 76 149 39 186 -18
18 -28 20 -63 15 -22 -4 -62 -18 -88 -31 l-46 -24 -15 22 c-12 18 -24 22 -63
22 l-49 0 -3 58 c-1 41 2 63 13 73 8 9 15 25 15 36 0 11 9 51 21 88 16 53 18
73 9 89 -13 26 -41 27 -63 3 -24 -27 -57 -139 -55 -184 l3 -40 -88 -23 -88
-23 -21 28 c-29 40 -43 43 -96 19 -110 -50 -112 -50 -112 -36 0 8 28 56 62
108 91 137 99 155 96 202 -3 38 -6 42 -31 45 -36 4 -57 -13 -57 -47 0 -24 -66
-127 -266 -414 -37 -53 -54 -88 -54 -109 l0 -31 -57 7 c-32 4 -61 10 -66 15
-16 16 27 96 100 185 75 93 90 130 78 185 -5 23 -19 38 -51 57 -24 14 -44 28
-44 30 0 13 57 29 125 34 80 5 80 5 83 35 5 41 -19 55 -95 55 -50 0 -88 -9
-185 -45 -130 -48 -158 -66 -158 -100 0 -37 33 -56 116 -66 86 -11 114 -22
114 -46 0 -16 -84 -125 -167 -215 -24 -26 -43 -54 -43 -62 0 -23 -15 -27 -62
-17 -24 6 -128 26 -233 46 -292 56 -434 101 -475 150 -24 29 -13 100 26 172
46 87 65 111 160 206 273 274 737 541 1389 799 352 140 735 250 1130 324 296
56 299 56 600 56 376 1 544 -22 711 -99 61 -28 77 -45 93 -101 43 -151 250
-208 356 -98 50 51 59 77 58 166 -1 77 -4 93 -37 162 -86 182 -300 305 -641
369 -82 15 -481 43 -535 37 -8 -1 -105 -4 -215 -8z m-1621 -2082 c20 -8 35 -8
66 1 77 23 73 -6 -14 -97 -67 -71 -72 -79 -50 -103 24 -26 34 -25 125 22 44
23 82 39 85 36 6 -5 -12 -41 -34 -69 -9 -11 -11 -28 -7 -47 6 -29 4 -31 -20
-31 -15 0 -50 6 -78 14 -29 7 -74 18 -102 24 -293 65 -348 80 -343 92 3 9 164
130 173 130 8 0 6 -47 -4 -73 -12 -32 11 -67 44 -67 26 0 55 33 55 62 0 15 67
118 77 118 1 0 14 -5 27 -12z m476 -117 c0 -4 -8 -19 -17 -32 -57 -78 -85
-138 -78 -167 6 -24 5 -25 -37 -19 -66 10 -118 27 -118 38 0 21 81 103 118
120 20 9 51 29 67 43 29 25 65 34 65 17z m870 -952 c19 -10 60 -42 92 -71 31
-29 121 -111 200 -182 234 -211 588 -554 856 -829 121 -125 124 -136 67 -248
-72 -144 -193 -294 -417 -519 -230 -232 -429 -386 -628 -489 -138 -70 -274
-125 -294 -118 -17 7 -13 149 11 392 13 132 17 329 19 1120 1 528 3 963 3 968
1 10 49 -2 91 -24z M7222 2434 c-22 -15 -22 -19 -22 -347 0 -183 -5 -435 -11 -562 -17
-400 -14 -469 28 -488 19 -8 27 -7 41 7 15 14 17 39 17 179 0 89 4 385 9 658
5 272 6 507 2 522 -9 37 -37 50 -64 31z M5438 2308 c-20 -20 -21 -28 -15 -182 4 -89 11 -305 17 -481 17 -501
39 -635 105 -635 32 0 52 32 60 95 6 46 5 52 -23 81 -35 36 -38 65 -47 369 -8
279 -26 717 -31 741 -6 31 -41 37 -66 12z M7092 2261 c-7 -4 -22 -50 -32 -102 -29 -138 -28 -135 -56 -168 -32
-38 -54 -40 -54 -6 0 34 -25 82 -49 95 -24 12 -84 13 -131 0 -19 -5 -53 -13
-74 -19 -65 -16 -71 -28 -57 -113 7 -40 19 -104 27 -143 9 -38 17 -80 20 -92
11 -58 100 -29 117 38 12 46 32 66 75 74 20 4 56 15 80 25 53 24 57 18 48 -78
-18 -198 -19 -241 -2 -276 21 -44 51 -52 82 -21 28 28 29 36 8 77 -14 27 -15
45 -4 147 6 64 17 152 25 196 13 73 30 188 42 288 8 59 -28 102 -65 78z m-259
-289 c-3 -26 -71 -104 -84 -96 -14 8 -11 90 4 102 34 28 83 24 80 -6z M6221 2113 c-26 -22 -51 -118 -51 -196 0 -78 26 -107 99 -107 57 0
56 1 66 -105 11 -124 -31 -246 -105 -305 -56 -44 -66 -65 -45 -96 22 -35 58
-31 105 12 22 20 60 41 87 49 290 81 307 90 301 162 -3 33 -7 38 -29 41 -19 2
-33 -4 -47 -23 -21 -26 -122 -65 -170 -65 -25 0 -25 0 -16 63 5 34 8 118 6
187 -4 141 -7 134 81 184 34 20 47 33 47 49 0 55 -43 60 -120 14 -86 -50 -149
-79 -160 -72 -16 10 -12 44 12 119 l22 68 -23 19 c-29 23 -33 23 -60 2z M5710 2065 c-17 -21 -40 -147 -40 -222 0 -106 30 -136 123 -126 44 5
46 4 53 -22 11 -45 -5 -183 -26 -224 -10 -20 -37 -56 -59 -81 -48 -53 -56 -72
-41 -100 16 -29 34 -25 109 24 79 52 177 98 246 115 74 18 95 35 95 77 0 43
-31 61 -67 38 -36 -23 -157 -64 -165 -56 -10 11 4 267 16 283 6 8 37 30 69 48
65 37 76 68 32 97 -24 16 -27 15 -63 -8 -59 -39 -202 -100 -219 -94 -16 7 -16
3 3 173 5 45 3 67 -6 78 -16 19 -44 19 -60 0z M5158 2055 c-34 -19 -43 -48 -28 -86 16 -38 12 -47 -94 -208 -85
-130 -158 -247 -188 -303 -13 -23 -14 -36 -7 -50 13 -25 38 -34 58 -21 14 9
75 101 148 225 15 26 35 50 43 53 9 4 34 -15 70 -53 30 -33 72 -72 92 -87 62
-45 132 -31 126 24 -2 20 -11 28 -38 36 -41 11 -149 115 -169 161 -11 27 -10
35 11 70 13 21 29 55 37 74 16 41 25 140 14 156 -14 20 -47 23 -75 9z"/>
</g>
</svg>
